<?xml version="1.0" encoding="UTF-8" standalone="no"?> <svg id="Layer_1" data-name="Layer 1" xmlns="http://www.w3.org/2000/svg" viewBox="0 0 64 64"><path d="M32,2A19,19,0,0,0,13,21V32H12a1,1,0,0,0-1,1v6a1,1,0,0,0,1,1h1.09A6,6,0,0,0,18,44.91V47H17a1,1,0,0,0-1,1v8a1,1,0,0,0,1,1h1v5h2V57h1a1,1,0,0,0,1-1V48a1,1,0,0,0-1-1H20V44.91A6,6,0,0,0,24.91,40H39.09A6,6,0,0,0,44,44.91V47H43a1,1,0,0,0-1,1v8a1,1,0,0,0,1,1h1v5h2V57h1a1,1,0,0,0,1-1V48a1,1,0,0,0-1-1H46V44.91A6,6,0,0,0,50.91,40H52a1,1,0,0,0,1-1V33a1,1,0,0,0-1-1H51V21A19,19,0,0,0,32,2ZM15,21a17,17,0,0,1,34,0V32H40V27a1,1,0,0,0-1-1H38V13a1,1,0,0,0-.44-.83,1,1,0,0,0-.93-.1L32,13.92l-4.63-1.85a1,1,0,0,0-.93.1A1,1,0,0,0,26,13V26H25a1,1,0,0,0-1,1v5H15Zm23,7v4H26V28ZM28,26V14.48l3,1.2V26Zm5,0V15.68l3-1.2V26ZM20,55H18V49h2ZM19,43a4,4,0,0,1-3.86-3h7.72A4,4,0,0,1,19,43ZM46,55H44V49h2ZM45,43a4,4,0,0,1-3.86-3h7.72A4,4,0,0,1,45,43Zm6-5H13V34H51Z"/></svg>