<?xml version="1.0" encoding="UTF-8" standalone="no"?> <svg id="Layer_1" data-name="Layer 1" xmlns="http://www.w3.org/2000/svg" viewBox="0 0 128 128"><defs><style>.cls-1{fill:#2d3e50;}</style></defs><title>b</title><path className="cls-1" d="M48.28782,33.25882H42.1651a5.28072,5.28072,0,0,0-5.23409,4.8738l-.00342.03613c-.14178,1.37738.28357.8872.65628,1.43a2.31672,2.31672,0,0,1,.0486,2.01341,5.23488,5.23488,0,0,0,.38081,3.74322c.24709.55325.51031,1.15451.779,1.71613a4.59948,4.59948,0,0,0-3.44164-.21334c-.03257.012-.06459.027-.097.04034a3.03661,3.03661,0,0,0-.45511-.24491c-.55082-.23481-1.49643-.462-1.795.25557a6.23656,6.23656,0,0,0-.40978,2.28581c.03056.785,1.44974,2.29939-.03865,2.55276a6.53617,6.53617,0,0,1-4.47995-1.30017,3.12492,3.12492,0,0,1-.58879-.47431c-.59318-.662-.30229-1.74578-.016-2.47776.24549-.62769,1.00358-1.64033,1.76544-1.659a2.30814,2.30814,0,0,1,.662.18185,2.50585,2.50585,0,0,0,1.8078-.43122.81317.81317,0,0,0,.3271-.26025c.21575-.35191-.287-.54019-.46821-.73767a.77866.77866,0,0,1-.12379-.74681,9.45544,9.45544,0,0,0,.55507-1.30463,3.19082,3.19082,0,0,0-.06962-1.30578,1.97261,1.97261,0,0,0-1.59147-1.61094,2.04022,2.04022,0,0,0-1.19425.28464c-.276.15863-.51976.36813-.79218.53288-.7265.43937-1.07582.072-1.785-.10646a2.33752,2.33752,0,0,0-1.29392.16374,7.9209,7.9209,0,0,1-4.62862.00128,23.98133,23.98133,0,0,0-4.26466-.8953,36.35321,36.35321,0,0,0-3.83537.225,8.82912,8.82912,0,0,1-3.83388-.69c-.43933-.17554-.87216-.42956-1.32291-.569a6.14476,6.14476,0,0,1-1.13356-.28014c-.37884-.1996-1.75163-.29738-2.02864.09775-.28515.39515-1.32391,1.08358-1.84533,1.58056-.51735.497-1.1243.39921-.611,1.438C2.28268,42.44286.4455,43.08648.914,44.21894s-.09368,4.19986,1.79239,4.7946c1.89012.59475,3.44624.941,4.52981.057,1.09171-.89618,2.74152-.89618,3.25886.09368s.80248,2.47267,2.4971,3.31182c1.6946.84322,3.16109,3.267,3.06739,4.3465-.08961,1.09171.053,4.69684,1.78833,6.77438a20.68644,20.68644,0,0,0,3.47652,2.96185c.77351.58211,1.55671,1.15125,2.34367,1.715q.56828.4071,1.1393.81084c.39639.28064,1.42233,1.25553,1.81046.42384a1.14789,1.14789,0,0,0,.02676-.77207c.04173.03313.08389.06553.12784.0945.91671.60447,2.11834.12044,3.20353-.047.819-.12639,1.661-.05772,2.47526-.21175A2.41988,2.41988,0,0,0,34.37373,67.183c.10437-.301.11682-.62727.21536-.93023.435-1.33741,2.15535-1.59349,3.49454-2.02294a8.30473,8.30473,0,0,0,5.28251-5.84394,10.91862,10.91862,0,0,0-1.20123-7.93425c-.1348-.24084-.28106-.4764-.43382-.70771a12.36638,12.36638,0,0,0,.787-2.27791c.42132-1.27206.42132-2.21191,1.503-2.852a34.43054,34.43054,0,0,0,4.73574-3.44343c.66034-.74136,1.40978-1.033,1.17482-2.30914-.24306-1.28015-.474-2.31318-.10127-3.05452l.00814-.01591A1.74121,1.74121,0,0,0,48.28782,33.25882Z"/><path className="cls-1" d="M46.90769,77.41671a6.444,6.444,0,0,1-3.08227-1.137c-.632-.54527-1.13612-1.22011-1.723-1.81039a9.56558,9.56558,0,0,0-4.52993-2.32445,8.68464,8.68464,0,0,0-2.43427-.45961,3.33281,3.33281,0,0,0-2.174,1.08485c-.75733,1.14647-.234,2.67457-.65684,3.94072a3.95362,3.95362,0,0,0-.08418,2.94783,9.95817,9.95817,0,0,0,1.81119,3.026,5.99176,5.99176,0,0,1,1.70173,3.25578,15.6404,15.6404,0,0,1-.63951,4.58352,49.79871,49.79871,0,0,0-.66082,5.88776c-.03345.43572.10267,1.21594.67958.80308a1.98573,1.98573,0,0,0,.36375-.41059,4.72114,4.72114,0,0,1,.87943-.78984c1.60195-1.21269,3.70436-2.36721,5.04265-3.87391,1.1004-1.23887,2.13022-2.53776,3.20565-3.79794.54971-.64416,1.11141-1.27854,1.69942-1.88814a11.49857,11.49857,0,0,0,1.63314-1.77665,10.79964,10.79964,0,0,0,.92924-2.4462c.32865-1.00695,1.30664-2.94823.42118-3.89418A4.80444,4.80444,0,0,0,46.90769,77.41671Z"/><path className="cls-1" d="M127.15467,40.6227c-1.1874-.8758-3.64592-2.6118-4.83593-2.33081-1.45425.34624-4.0532-.79436-4.48092-1.03877a22.31977,22.31977,0,0,0-5.75189-1.385,30.3266,30.3266,0,0,1-6.37109-1.58055c-1.60906-.69658-2.96964-4.10616-6.037-3.56031-.39515.07333-4.10211.59475-5.04716,1.438-.11351.10215-.2193.20637-.319.311.01025.02.01779.04106.02657.06166-1.49932.13268-2.90742,1.29468-4.39114,1.863-2.08412.79826-4.54961.4387-6.46662,1.58139-.50331.3-.94517.69226-1.43256,1.01746-1.91954,1.2808-4.35517,1.42233-6.54592,2.14739a12.27217,12.27217,0,0,0-1.95795.80859,3.79738,3.79738,0,0,1-.65808-.568c-.79841-.83917-.98988-1.67832-1.7883-1.33207-.79841.34219-4.19579,3.84954-5.5197,5.43416-1.31576,1.58462-3.67844,3.21405-2.50117,4.3465,1.18541,1.13653,1.79237.98988,1.939,1.62945.07293.31807.12656.641.21754.95481a3.10441,3.10441,0,0,1,.25117.77022,1.21314,1.21314,0,0,1-.616,1.06258,6.21682,6.21682,0,0,0-.58974.36916c-.21029.16825-.37633.38538-.58689.55422-.42365.34626-1.74756,1.97162-2.64374,2.22419-.0556.01549-.11191.02913-.1685.04135a.97452.97452,0,0,0-.52475.30688l-.03213.03682a1.02583,1.02583,0,0,0-.11809,1.1468c-.54491.63781-3.15455,3.70229-3.15455,5.47584,0,1.82494,1.03468,6.7784,4.38367,6.28138a25.74375,25.74375,0,0,1,2.89638-.4185c1.32483-.04514,2.1537.18642,1.99675,1.63909a4.52608,4.52608,0,0,0,.41871,1.99593,45.452,45.452,0,0,1,1.88047,7.09716c.20458,1.07329.44922,2.17186.54633,3.261.06428.7224-.06,1.72652.79541,2.0155A2.46426,2.46426,0,0,0,71.29,84.24695a6.32386,6.32386,0,0,0,1.85652-.67524c1.87886-1.11763,1.38676-3.50743,2.75349-4.98787a13.76113,13.76113,0,0,1,1.18618-.99853,2.92,2.92,0,0,0,.93469-2.50947,10.82276,10.82276,0,0,1,.05394-1.73287,5.93827,5.93827,0,0,1,1.98945-1.01309,14.613,14.613,0,0,1,4.59329-.341q4.56981.14474,9.13967.28944a18.99456,18.99456,0,0,0,5.41836-.348,6.41068,6.41068,0,0,0,4.23968-3.1485,9.69,9.69,0,0,1,1.27867-2.64407,10.39762,10.39762,0,0,1,1.61537-1.1271c1.8122-1.2942,2.41021-3.73861,3.99328-5.30479a22.06993,22.06993,0,0,0,2.28036-2.062c.94962-1.24775,1.03171-2.97183,1.88-4.29054a7.5265,7.5265,0,0,1,2.96633-2.37788,2.739,2.739,0,0,0,.85334-.31021c1.38861-.70848,2.72438-1.5149,4.10916-2.23048,1.045-.54,3.05132-.96429,3.49205-2.21573.33-.93692-.42365-1.78422.42367-1.72719a1.81285,1.81285,0,0,1,.60229.15678,2.86628,2.86628,0,0,1-.02027-.40039C126.955,42.99194,127.21316,41.85781,127.15467,40.6227Z"/><path className="cls-1" d="M115.7969,83.30956a.70264.70264,0,0,0-.606-.461c-1.182-.09357-2.36559-.164-3.55215-.19511a.70371.70371,0,0,0-.57563.27337,1.98074,1.98074,0,0,1-.53328.52341c-.30552.17516-2.99817,1.23344-4.15574.87233a.68328.68328,0,0,0-.20056-.0312c-1.06691-.00572-2.13638-.03234-3.20521-.03464a.70612.70612,0,0,0-.67992.882,8.92206,8.92206,0,0,1,.2613,1.02856c.04889.64362-.42772,1.829-.42772,2.6193,0,.79843,1.89012,1.03877,2.46043,1.23837.43688.15626.79644.82639,1.15869,1.372a.70934.70934,0,0,0,.60357.3078c.839-.0069,1.69022.10416,2.52242.12553,1.01934.02616,2.03967-.04055,3.05924-.01224.40932.01136,3.79729-2.77887,4.502-3.46732a2.16185,2.16185,0,0,0,.23627-2.37488C116.47027,85.32571,116.08588,84.10859,115.7969,83.30956Z"/></svg>